<?xml version="1.0" standalone="no"?>
<!DOCTYPE svg PUBLIC "-//W3C//DTD SVG 20010904//EN"
 "http://www.w3.org/TR/2001/REC-SVG-20010904/DTD/svg10.dtd">
<svg version="1.0" xmlns="http://www.w3.org/2000/svg"
 width="500.000000pt" height="500.000000pt" viewBox="0 0 500.000000 500.000000"
 preserveAspectRatio="xMidYMid meet">
<metadata>
Created by potrace 1.11, written by Peter Selinger 2001-2013
</metadata>
<g transform="translate(0.000000,500.000000) scale(0.100000,-0.100000)"
fill="#000000" stroke="none">
<path d="M458 4984 c-207 -50 -394 -238 -443 -446 -22 -95 -22 -3981 0 -4076
50 -211 236 -397 447 -447 95 -22 3981 -22 4076 0 211 50 397 236 447 447 22
95 22 3981 0 4076 -50 211 -236 397 -447 447 -91 21 -3992 21 -4080 -1z m2451
-1450 c4 -3 -557 -2174 -564 -2182 -2 -2 -269 58 -271 61 -2 3 561 2149 568
2168 6 15 19 14 135 -13 70 -16 130 -31 132 -34z m-1199 -659 c26 -60 45 -113
42 -116 -4 -3 -179 -79 -390 -169 -211 -89 -382 -163 -380 -165 2 -1 167 -71
368 -155 201 -84 375 -158 387 -164 22 -11 22 -11 -29 -129 -28 -65 -54 -116
-59 -115 -4 2 -215 95 -468 208 l-460 205 -1 150 0 150 458 207 c251 113 463
205 470 205 8 -1 35 -51 62 -112z m2097 -92 l463 -208 0 -150 -1 -150 -460
-205 c-253 -113 -463 -206 -468 -208 -6 -2 -39 67 -97 204 l-13 32 302 127
c166 70 339 144 385 163 46 19 80 38 75 42 -4 4 -174 79 -378 165 -203 87
-373 161 -376 164 -4 3 8 40 27 81 18 41 40 92 49 113 8 20 18 37 22 37 5 0
216 -93 470 -207z"/>
</g>
</svg>
